<?xml version="1.0" encoding="UTF-8"?>
<svg width="24px" height="24px" viewBox="0 0 24 24" version="1.1" xmlns="http://www.w3.org/2000/svg" xmlns:xlink="http://www.w3.org/1999/xlink">
    <!-- Generator: Sketch 49.3 (51167) - http://www.bohemiancoding.com/sketch -->
    <title>ic_receive</title>
    <desc>Created with Sketch.</desc>
    <defs></defs>
    <g id="ic_receive" stroke="none" stroke-width="1" fill="none" fill-rule="evenodd">
        <circle id="Oval-4" fill="#F8A035" cx="12" cy="7" r="5"></circle>
        <path d="M7,2 C9.76142375,2 12,4.23857625 12,7 C12,9.76142375 9.76142375,12 7,12 L7,2 Z" id="Combined-Shape" fill="#FFD29C" opacity="0.347090127" transform="translate(9.500000, 7.000000) rotate(-180.000000) translate(-9.500000, -7.000000) "></path>
        <g id="Eth" transform="translate(10.000000, 3.000000)">
            <polygon id="Path-9" fill="#FFFFFF" points="0 4 2 3.27272727 2 3.90082645 2 5.09090909"></polygon>
            <polygon id="Path-10" fill-opacity="0.639999986" fill="#FFFFFF" points="0 3.63636364 2 0 2 2.72727273"></polygon>
            <polygon id="Path-11" fill="#FFFFFF" points="2 2.72727273 4 3.63636364 2 0"></polygon>
            <polygon id="Path-12" fill-opacity="0.200000018" fill="#000000" style="mix-blend-mode: multiply;" points="2 5.09090909 2 3.27272727 4 4"></polygon>
            <polygon id="Path-13" fill="#FFFFFF" points="2 5.77777778 4 4.36363636 2 8"></polygon>
            <polygon id="Path-14" fill-opacity="0.639999986" fill="#FFFFFF" points="2 8 0 4.36363636 2 5.77777778"></polygon>
        </g>
        <path d="M2,8 C2,6.5 2.5,6 3.5,6 C4.5,6 4.5,7 4.5,8 C4.5,9.76732032 4.5,11.5346406 4.5,13.301961 L4.5,13.301961 C4.5,13.4336649 4.51300937,13.5650469 4.53883865,13.6941932 L4.83774436,15.1887218 C4.94164523,15.7082262 5.24742568,16.1652809 5.68796796,16.4595642 L6.8787353,17.2549996 C7.01422057,17.345504 7.19528704,17.3247463 7.30677522,17.2059283 L7.30677522,17.2059283 C7.40539177,17.1008282 7.40013583,16.9356833 7.29503575,16.8370667 C7.29003389,16.8323734 7.28484894,16.8278792 7.27949298,16.8235944 L5.70386563,15.5630925 C5.30563953,15.2445116 5.21711497,14.6743275 5.5,14.25 L5.5,14.25 C5.74813617,13.8777957 6.25102145,13.7772187 6.6232257,14.0253549 C6.64720904,14.0413438 6.67032179,14.0586015 6.6924653,14.0770544 L8.82053525,15.850446 C8.93977309,15.9498109 9.04703872,16.0627183 9.14016645,16.1868886 L10.2073875,17.60985 C10.3996459,17.8661945 10.5274969,18.1649812 10.5801753,18.481052 L10.8305414,19.9832484 C10.9262407,20.5574439 10.5647353,21.1088162 10,21.25 L9.38007704,21.4049807 C9.12907751,21.4677306 8.86828717,21.4811839 8.61216308,21.4445947 L6.23403672,21.1048624 C5.76042959,21.0372042 5.32676481,20.8020169 5.01172604,20.4419726 L2.49484661,17.565539 C2.1758365,17.200956 2,16.7329761 2,16.2485298 C2,13.4990198 2,10.7495099 2,8 Z" id="Rectangle-5" fill="#F8A035"></path>
        <path d="M13,8 C13,6.5 13.5,6 14.5,6 C15.5,6 15.5,7 15.5,8 C15.5,9.76732032 15.5,11.5346406 15.5,13.301961 L15.5,13.301961 C15.5,13.4336649 15.5130094,13.5650469 15.5388386,13.6941932 L15.8377444,15.1887218 C15.9416452,15.7082262 16.2474257,16.1652809 16.687968,16.4595642 L17.8787353,17.2549996 C18.0142206,17.345504 18.195287,17.3247463 18.3067752,17.2059283 L18.3067752,17.2059283 C18.4053918,17.1008282 18.4001358,16.9356833 18.2950357,16.8370667 C18.2900339,16.8323734 18.2848489,16.8278792 18.279493,16.8235944 L16.7038656,15.5630925 C16.3056395,15.2445116 16.217115,14.6743275 16.5,14.25 L16.5,14.25 C16.7481362,13.8777957 17.2510214,13.7772187 17.6232257,14.0253549 C17.647209,14.0413438 17.6703218,14.0586015 17.6924653,14.0770544 L19.8205352,15.850446 C19.9397731,15.9498109 20.0470387,16.0627183 20.1401665,16.1868886 L21.2073875,17.60985 C21.3996459,17.8661945 21.5274969,18.1649812 21.5801753,18.481052 L21.8305414,19.9832484 C21.9262407,20.5574439 21.5647353,21.1088162 21,21.25 L20.380077,21.4049807 C20.1290775,21.4677306 19.8682872,21.4811839 19.6121631,21.4445947 L17.2340367,21.1048624 C16.7604296,21.0372042 16.3267648,20.8020169 16.011726,20.4419726 L13.4948466,17.565539 C13.1758365,17.200956 13,16.7329761 13,16.2485298 C13,13.4990198 13,10.7495099 13,8 Z" id="Rectangle-5-Copy" fill="#F8A035" transform="translate(17.422935, 13.732348) scale(-1, 1) translate(-17.422935, -13.732348) "></path>
    </g>
</svg>