<svg width="662" height="354" viewBox="0 0 662 354" version="1.1" xmlns="http://www.w3.org/2000/svg" xmlns:xlink="http://www.w3.org/1999/xlink">
<title>logo_solid_side_dark</title>
<desc>Created using Figma</desc>
<g id="Canvas" transform="translate(467 -259)">
<g id="logo_solid_side_dark">
<g id="Rectangle">
<use xlink:href="#path0_fill" transform="translate(-467 259)" fill="#3375BB"/>
</g>
<g id="trust_solid_dark_background">
<g id="logo_solid_white">
<use xlink:href="#path1_stroke" transform="translate(-333 351)" fill="#FFFFFF"/>
</g>
<g id="labels">
<g id="TRUST">
<use xlink:href="#path2_fill" transform="translate(-179 375)" fill="#FFFFFF"/>
</g>
<g id="WALLET">
<use xlink:href="#path3_fill" transform="translate(-153 439)" fill="#FFFFFF"/>
</g>
</g>
</g>
</g>
</g>
<defs>
<path id="path0_fill" d="M 0 0L 662 0L 662 354L 0 354L 0 0Z"/>
<path id="path1_stroke" d="M 72.4 -7.62939e-07L 76.6355 -5.46695C 74.1422 -7.39862 70.6578 -7.39862 68.1645 -5.46695L 72.4 -7.62939e-07ZM 144.9 21.3L 151.815 21.4125C 151.845 19.5591 151.13 17.7711 149.83 16.4498C 148.53 15.1284 146.754 14.3843 144.9 14.3843L 144.9 21.3ZM 72.4 169.4L 68.5687 175.157C 70.8895 176.702 73.9105 176.702 76.2312 175.157L 72.4 169.4ZM 2.44141e-05 21.3L 2.44141e-05 14.3843C -1.85363 14.3843 -3.62969 15.1284 -4.92972 16.4498C -6.22975 17.7711 -6.94491 19.5591 -6.91476 21.4125L 2.44141e-05 21.3ZM 68.1645 5.46695C 99.5498 29.7826 135.462 28.2157 144.9 28.2157L 144.9 14.3843C 135.138 14.3843 103.85 15.6174 76.6355 -5.46695L 68.1645 5.46695ZM 137.985 21.1875C 137.464 53.3107 136.105 75.9691 133.502 92.7573C 130.933 109.367 127.26 119.322 122.533 126.314C 117.743 133.578 111.735 137.889 102.832 143.208C 93.8513 148.587 82.5074 154.381 68.5687 163.643L 76.2312 175.157C 89.4925 166.319 100.549 160.688 109.934 155.076C 119.396 149.405 127.719 143.159 133.992 134.061C 140.327 124.69 144.448 112.476 147.17 94.8709C 149.858 77.4434 151.286 53.8393 151.815 21.4125L 137.985 21.1875ZM 76.2312 163.643C 62.2932 154.381 50.9569 148.588 41.9867 143.21C 33.0938 137.892 27.0986 133.583 22.3207 126.32C 17.6046 119.329 13.9431 109.373 11.3835 92.7609C 8.78912 75.9718 7.43571 53.3117 6.91481 21.1875L -6.91476 21.4125C -6.38566 53.8383 -4.96407 77.4407 -2.28659 94.8672C 0.425674 112.47 4.53296 124.684 10.8543 134.055C 17.1139 143.154 25.4249 149.402 34.8789 155.075C 44.2555 160.687 55.3068 166.319 68.5687 175.157L 76.2312 163.643ZM 2.44141e-05 28.2157C 9.34005 28.2157 45.2509 29.782 76.6355 5.46695L 68.1645 -5.46695C 40.9491 15.618 9.66 14.3843 2.44141e-05 14.3843L 2.44141e-05 28.2157Z"/>
<path id="path2_fill" d="M 57.5 21.0938L 43.5625 21.0938L 43.5625 59L 34.1875 59L 34.1875 21.0938L 20.4375 21.0938L 20.4375 13.5L 57.5 13.5L 57.5 21.0938ZM 79.7188 42.3438L 72.25 42.3438L 72.25 59L 62.875 59L 62.875 13.5L 79.7812 13.5C 85.1562 13.5 89.3021 14.6979 92.2188 17.0938C 95.1354 19.4896 96.5938 22.875 96.5938 27.25C 96.5938 30.3542 95.9167 32.9479 94.5625 35.0312C 93.2292 37.0938 91.1979 38.7396 88.4688 39.9688L 98.3125 58.5625L 98.3125 59L 88.25 59L 79.7188 42.3438ZM 72.25 34.75L 79.8125 34.75C 82.1667 34.75 83.9896 34.1562 85.2812 32.9688C 86.5729 31.7604 87.2188 30.1042 87.2188 28C 87.2188 25.8542 86.6042 24.1667 85.375 22.9375C 84.1667 21.7083 82.3021 21.0938 79.7812 21.0938L 72.25 21.0938L 72.25 34.75ZM 138.188 13.5L 138.188 43.4688C 138.188 48.4479 136.625 52.3854 133.5 55.2812C 130.396 58.1771 126.146 59.625 120.75 59.625C 115.438 59.625 111.219 58.2188 108.094 55.4062C 104.969 52.5938 103.375 48.7292 103.312 43.8125L 103.312 13.5L 112.688 13.5L 112.688 43.5312C 112.688 46.5104 113.396 48.6875 114.812 50.0625C 116.25 51.4167 118.229 52.0938 120.75 52.0938C 126.021 52.0938 128.698 49.3229 128.781 43.7812L 128.781 13.5L 138.188 13.5ZM 169.469 47.0625C 169.469 45.2917 168.844 43.9375 167.594 43C 166.344 42.0417 164.094 41.0417 160.844 40C 157.594 38.9375 155.021 37.8958 153.125 36.875C 147.958 34.0833 145.375 30.3229 145.375 25.5938C 145.375 23.1354 146.062 20.9479 147.438 19.0312C 148.833 17.0938 150.823 15.5833 153.406 14.5C 156.01 13.4167 158.927 12.875 162.156 12.875C 165.406 12.875 168.302 13.4688 170.844 14.6562C 173.385 15.8229 175.354 17.4792 176.75 19.625C 178.167 21.7708 178.875 24.2083 178.875 26.9375L 169.5 26.9375C 169.5 24.8542 168.844 23.2396 167.531 22.0938C 166.219 20.9271 164.375 20.3438 162 20.3438C 159.708 20.3438 157.927 20.8333 156.656 21.8125C 155.385 22.7708 154.75 24.0417 154.75 25.625C 154.75 27.1042 155.49 28.3438 156.969 29.3438C 158.469 30.3438 160.667 31.2812 163.562 32.1562C 168.896 33.7604 172.781 35.75 175.219 38.125C 177.656 40.5 178.875 43.4583 178.875 47C 178.875 50.9375 177.385 54.0312 174.406 56.2812C 171.427 58.5104 167.417 59.625 162.375 59.625C 158.875 59.625 155.688 58.9896 152.812 57.7188C 149.938 56.4271 147.74 54.6667 146.219 52.4375C 144.719 50.2083 143.969 47.625 143.969 44.6875L 153.375 44.6875C 153.375 49.7083 156.375 52.2188 162.375 52.2188C 164.604 52.2188 166.344 51.7708 167.594 50.875C 168.844 49.9583 169.469 48.6875 169.469 47.0625ZM 219.5 21.0938L 205.562 21.0938L 205.562 59L 196.188 59L 196.188 21.0938L 182.438 21.0938L 182.438 13.5L 219.5 13.5L 219.5 21.0938Z"/>
<path id="path3_fill" d="M 11.0596 36.4053L 12.1582 41.9229L 13.501 36.6494L 21.2158 10.4531L 23.9258 10.4531L 31.543 36.6494L 32.8613 41.9717L 34.0332 36.4053L 40.4541 10.4531L 43.5303 10.4531L 34.4238 46L 31.543 46L 23.4863 18.1924L 22.583 14.6768L 21.7041 18.1924L 13.4521 46L 10.5713 46L 1.48926 10.4531L 4.56543 10.4531L 11.0596 36.4053ZM 67.4316 36.0391L 51.2939 36.0391L 47.6318 46L 44.4824 46L 57.9346 10.4531L 60.791 10.4531L 74.2432 46L 71.1182 46L 67.4316 36.0391ZM 52.2217 33.4756L 66.4795 33.4756L 59.3506 14.1152L 52.2217 33.4756ZM 82.5195 43.4609L 100.073 43.4609L 100.073 46L 79.4922 46L 79.4922 10.4531L 82.5195 10.4531L 82.5195 43.4609ZM 108.887 43.4609L 126.44 43.4609L 126.44 46L 105.859 46L 105.859 10.4531L 108.887 10.4531L 108.887 43.4609ZM 151.855 28.959L 135.229 28.959L 135.229 43.4609L 154.346 43.4609L 154.346 46L 132.227 46L 132.227 10.4531L 154.224 10.4531L 154.224 13.0166L 135.229 13.0166L 135.229 26.4199L 151.855 26.4199L 151.855 28.959ZM 185.303 13.0166L 173.12 13.0166L 173.12 46L 170.117 46L 170.117 13.0166L 157.959 13.0166L 157.959 10.4531L 185.303 10.4531L 185.303 13.0166Z"/>
</defs>
</svg>
